<svg xmlns="http://www.w3.org/2000/svg" xmlns:xlink="http://www.w3.org/1999/xlink" width="1300" height="953" viewBox="0 0 1300 953"><defs><linearGradient id="a" x1="0.5" x2="0.5" y2="1" gradientUnits="objectBoundingBox"><stop offset="0" stop-color="#fff"/><stop offset="1" stop-color="#f5f5f5"/></linearGradient><clipPath id="c"><rect width="1300" height="953"/></clipPath></defs><g id="b" clip-path="url(#c)"><rect width="1300" height="953" fill="#fff"/><g transform="translate(0 -432)"><path d="M0,0H1302a0,0,0,0,1,0,0V947a6,6,0,0,1-6,6H6a6,6,0,0,1-6-6V0A0,0,0,0,1,0,0Z" transform="translate(-2 432)" fill="#fff"/><path d="M6,0H1294a6,6,0,0,1,6,6V88a0,0,0,0,1,0,0H0a0,0,0,0,1,0,0V6A6,6,0,0,1,6,0Z" transform="translate(0 432)" fill="url(#a)"/><line x2="1299.5" transform="translate(0.5 520)" fill="none" stroke="#e3e3e3" stroke-width="2"/><g transform="translate(1028 1161)"><rect width="257" height="52" transform="translate(0 151)" fill="#fff"/><g transform="translate(66 151)"><path d="M87.056,45.443c0,3.458-3.332,6.665-9.683,6.665A18.539,18.539,0,0,1,69.2,50.221l1.509-2.641a14.128,14.128,0,0,0,6.79,1.7c3.018,0,4.9-1.257,4.9-3.269,0-1.509-1.132-2.515-3.71-3.018l-2.641-.629a7.92,7.92,0,0,1-4.778-2.515,4.5,4.5,0,0,1-1.006-3.018c0-3.647,3.458-6.162,8.425-6.162a15.572,15.572,0,0,1,7.859,2.012l-1.886,2.452a12.094,12.094,0,0,0-5.847-1.509c-2.452,0-4.024,1.132-4.024,2.829,0,1.32.88,1.949,3.269,2.578l2.955.692C84.541,40.413,87.056,42.3,87.056,45.443Zm26.533-5.91-2.955-.692c-2.452-.629-3.269-1.257-3.269-2.578,0-1.7,1.635-2.829,4.024-2.829a11.918,11.918,0,0,1,5.847,1.509l1.886-2.452a15.463,15.463,0,0,0-7.859-1.886c-4.967,0-8.425,2.515-8.425,6.162a4.29,4.29,0,0,0,1.006,3.018,7.909,7.909,0,0,0,4.841,2.515l2.641.629c2.578.566,3.71,1.509,3.71,3.018,0,2.075-1.823,3.269-4.9,3.269a14.822,14.822,0,0,1-6.728-1.7l-1.509,2.641a18.342,18.342,0,0,0,8.174,1.886c6.35,0,9.683-3.207,9.683-6.665C119.688,42.3,117.173,40.413,113.59,39.533ZM92.527,51.668h4.213V30.919H92.527Zm29.3-17.919h6.287V51.668h4.15V33.811h6.225l.566-2.892H121.889v2.829Zm60.8,6.539,6.287-9.431h-4.9l-3.9,6.476-3.961-6.413h-5.03l6.665,9.62L170.177,51.73h5.093l4.967-8.237,5.156,8.237h4.9ZM154.835,46.7l3.647,4.967h-4.9l-2.138-3.207a23.639,23.639,0,0,0-4.213-5.156,2.227,2.227,0,0,0-1.635-.629V51.73h-4.087V30.919h7.608c5.533,0,8.111,2.7,8.111,5.973a5.742,5.742,0,0,1-5.722,5.722h-.44A16.7,16.7,0,0,1,154.835,46.7Zm-3.018-7.293a3.256,3.256,0,0,0,1.132-2.515c0-2.138-1.383-3.207-5.03-3.207h-2.326v6.6h2.138a6.4,6.4,0,0,0,4.087-.88ZM162.946,51.73h4.213V30.919h-4.275Zm75.324,15.4L226.009,54.874a17.341,17.341,0,1,1,3.018-3.081l12.323,12.323ZM215.384,55.063a13.77,13.77,0,1,0-13.77-13.77,13.766,13.766,0,0,0,13.77,13.77Z" transform="translate(-69.2 -24.177)" fill="#eee"/></g></g><path d="M31.563,27.669l-6.231-6.231A1.5,1.5,0,0,0,24.269,21H23.25A12.994,12.994,0,1,0,21,23.25v1.019a1.5,1.5,0,0,0,.438,1.063l6.231,6.231a1.494,1.494,0,0,0,2.119,0l1.769-1.769A1.507,1.507,0,0,0,31.563,27.669ZM13,21a8,8,0,1,1,8-8A8,8,0,0,1,13,21Z" transform="translate(32 461)" fill="#1269d3"/></g><path d="M7.36,30V6.064H2.4V30ZM20.192,13.136a5,5,0,0,0-4.448,2.016v-1.7H11.328V30H16V20.816a3.03,3.03,0,0,1,3.072-3.328c1.792,0,2.912,1.184,2.912,3.3V30h4.672V19.888C26.656,15.6,24,13.136,20.192,13.136Zm15.9,4.352H40V13.456H36.128l.032-5.472H31.488l-.032,5.472h-3.04v4.032h3.008l-.032,7.264c-.032,3.84,2.432,5.568,6.016,5.568A15.559,15.559,0,0,0,40,30.128v-4.16a6.908,6.908,0,0,1-1.44.16,2.282,2.282,0,0,1-2.5-2.5Zm21.888,5.728V21.36c0-5.152-3.136-8.224-7.9-8.224-4.928,0-8.416,3.264-8.416,8.608,0,5.312,3.488,8.608,8.544,8.608,3.872,0,7.04-2.24,7.616-5.376l-4.7-.224c-.352,1.152-1.408,1.824-3.04,1.824a3.234,3.234,0,0,1-3.456-3.36Zm-7.936-6.432c2.112,0,3.136,1.312,3.232,3.328H46.624A3.232,3.232,0,0,1,50.048,16.784ZM70.016,13.3c-2.528,0-3.84.96-4.544,2.048V13.456H60.96V30h4.672V21.616c0-2.272,1.7-3.808,4.384-3.808Zm11.168-.16a5,5,0,0,0-4.448,2.016v-1.7H72.32V30h4.672V20.816a3.03,3.03,0,0,1,3.072-3.328c1.792,0,2.912,1.184,2.912,3.3V30h4.672V19.888C87.648,15.6,84.992,13.136,81.184,13.136Zm25.6,10.08V21.36c0-5.152-3.136-8.224-7.9-8.224-4.928,0-8.416,3.264-8.416,8.608,0,5.312,3.488,8.608,8.544,8.608,3.872,0,7.04-2.24,7.616-5.376l-4.7-.224c-.352,1.152-1.408,1.824-3.04,1.824a3.234,3.234,0,0,1-3.456-3.36Zm-7.936-6.432c2.112,0,3.136,1.312,3.232,3.328H95.424A3.232,3.232,0,0,1,98.848,16.784Zm16.64.7h3.9V13.456H115.52l.032-5.472H110.88l-.032,5.472h-3.04v4.032h3.008l-.032,7.264c-.032,3.84,2.432,5.568,6.016,5.568a15.559,15.559,0,0,0,2.592-.192v-4.16a6.908,6.908,0,0,1-1.44.16,2.282,2.282,0,0,1-2.5-2.5Zm15.712,6.3V19.44H121.088v4.352Zm14.432-18.08c-7.008,0-12.16,4.576-12.16,12.32,0,7.712,5.184,12.32,12.192,12.32,5.792,0,10.432-3.424,11.36-9.024l-5.184-.448a5.988,5.988,0,0,1-6.336,5.088c-3.936,0-7.008-2.752-7.008-7.936,0-4.864,2.784-7.936,6.976-7.936a6.046,6.046,0,0,1,6.368,5.184l5.152-.448C156.128,9.168,151.424,5.712,145.632,5.712ZM168.96,13.3c-2.528,0-3.84.96-4.544,2.048V13.456H159.9V30h4.672V21.616c0-2.272,1.7-3.808,4.384-3.808Zm8.768-.16c-4.256,0-6.912,3.008-6.912,5.92l4.672.192a2.115,2.115,0,0,1,2.3-2.176c1.44,0,2.144.9,2.144,2.56v.64l-2.944.16c-3.52.16-6.624,1.344-6.624,5.024,0,3.2,2.176,4.9,5.5,4.9a5.726,5.726,0,0,0,4.224-1.7V30h4.512V19.792C184.608,15.44,182.176,13.136,177.728,13.136Zm2.208,10.208v.7c0,1.76-1.28,2.688-2.976,2.688-1.12,0-1.92-.416-1.92-1.5,0-1.184.992-1.664,2.4-1.728ZM206.368,30l6.368-16.544h-5.12l-3.232,9.472-3.424-9.472H197.7L194.3,22.928l-3.232-9.472h-5.12L192.288,30H196l3.328-8.768L202.656,30ZM219.1,30V5.136h-4.672V30Zm6.24-24.768a2.814,2.814,0,0,0-2.784,2.816,2.8,2.8,0,0,0,5.6,0A2.8,2.8,0,0,0,225.344,5.232ZM227.68,30V13.456h-4.672V30Zm12.768-16.864A5,5,0,0,0,236,15.152v-1.7h-4.416V30h4.672V20.816a3.03,3.03,0,0,1,3.072-3.328c1.792,0,2.912,1.184,2.912,3.3V30h4.672V19.888C246.912,15.6,244.256,13.136,240.448,13.136Zm17.248,0c-4.672,0-7.968,3.424-7.968,8.608s3.3,8.608,7.968,8.608a6.37,6.37,0,0,0,4.672-1.76V30.96c0,2.368-1.568,3.552-3.872,3.552-2.112,0-3.488-.96-3.712-2.56l-4.64.16c.608,3.776,3.328,6.368,8.512,6.368,5.088,0,8.352-3.1,8.352-7.872V13.456h-4.384v1.728A6.047,6.047,0,0,0,257.7,13.136Zm.768,4c2.3,0,3.9,1.568,3.9,4.224v.768c0,2.656-1.6,4.224-3.9,4.224-2.336,0-4-1.664-4-4.608S256.128,17.136,258.464,17.136Zm37.088,13.216L298.3,26.8l-3.936-3.3a30.407,30.407,0,0,0,2.048-5.6l-4.352-1.12a26.97,26.97,0,0,1-1.184,3.808l-5.056-4.224c-1.536-1.28-2.976-2.336-2.976-4.032a2.283,2.283,0,0,1,2.5-2.528A2.471,2.471,0,0,1,288,12.176l4.768-.384c-.576-3.84-3.488-6.08-7.424-6.08-4.352,0-7.424,2.272-7.424,6.688a6.739,6.739,0,0,0,1.888,4.48c-2.208,1.6-3.744,3.488-3.744,6.528,0,3.808,2.784,6.912,8.48,6.912a9.527,9.527,0,0,0,7.264-3.1Zm-10.944-4.224c-2.176,0-3.52-1.184-3.52-3.168a4.072,4.072,0,0,1,1.632-3.392l5.792,4.864A5.318,5.318,0,0,1,284.608,26.128Zm26.368-.512V6.064h-4.96V30h15.392V25.616ZM326.432,5.232a2.814,2.814,0,0,0-2.784,2.816,2.8,2.8,0,0,0,5.6,0A2.8,2.8,0,0,0,326.432,5.232ZM328.768,30V13.456H324.1V30Zm12.768-16.864a5,5,0,0,0-4.448,2.016v-1.7h-4.416V30h4.672V20.816a3.03,3.03,0,0,1,3.072-3.328c1.792,0,2.912,1.184,2.912,3.3V30H348V19.888C348,15.6,345.344,13.136,341.536,13.136Zm14.848,6.208V5.136h-4.672V30h4.672V25.616l1.472-1.6L362.176,30h5.664l-6.688-9.472,6.24-7.072h-5.664Zm22.464,4.448V19.44H368.736v4.352ZM386.912,30V6.064h-4.96V30Zm12.832-16.864a5,5,0,0,0-4.448,2.016v-1.7H390.88V30h4.672V20.816a3.03,3.03,0,0,1,3.072-3.328c1.792,0,2.912,1.184,2.912,3.3V30h4.672V19.888C406.208,15.6,403.552,13.136,399.744,13.136ZM426.3,30V5.136h-4.64V14.9a6.192,6.192,0,0,0-4.672-1.76c-4.672,0-7.968,3.392-7.968,8.608,0,5.184,3.3,8.608,7.968,8.608A6.145,6.145,0,0,0,421.92,28.3V30ZM417.76,17.136c2.3,0,3.9,1.568,3.9,4.224V22.1c0,2.688-1.6,4.224-3.9,4.224-2.336,0-4-1.632-4-4.576S415.424,17.136,417.76,17.136Zm14.784-11.9a2.814,2.814,0,0,0-2.784,2.816,2.8,2.8,0,0,0,5.6,0A2.8,2.8,0,0,0,432.544,5.232ZM434.88,30V13.456h-4.672V30Zm14.848-13.44v-3.1H437.7v3.776h6.656l-6.784,9.7V30h12.416V26.224h-7.008Zm18.3,6.656V21.36c0-5.152-3.136-8.224-7.9-8.224-4.928,0-8.416,3.264-8.416,8.608,0,5.312,3.488,8.608,8.544,8.608,3.872,0,7.04-2.24,7.616-5.376l-4.7-.224c-.352,1.152-1.408,1.824-3.04,1.824a3.234,3.234,0,0,1-3.456-3.36ZM460.1,16.784c2.112,0,3.136,1.312,3.232,3.328h-6.656A3.232,3.232,0,0,1,460.1,16.784Zm16.576-3.648c-4.16,0-6.624,2.048-6.624,5.216,0,3.392,2.336,4.128,5.856,5.024,2.4.576,3.008.9,3.008,1.888,0,.96-.8,1.5-2.08,1.5-1.6,0-2.336-.832-2.4-2.048l-4.672.256c.352,3.456,2.816,5.376,7.04,5.376,4.32,0,6.784-2.144,6.784-5.5,0-3.008-2.336-4.032-5.632-4.9-1.984-.512-3.232-.672-3.232-1.824,0-.9.64-1.408,1.888-1.408a1.91,1.91,0,0,1,2.112,2.016l4.64-.256C483.072,15.408,480.864,13.136,476.672,13.136Z" transform="translate(93 26)" fill="#00285a"/><circle cx="376" cy="376" r="376" transform="translate(74 144)" fill="#1269d3" opacity="0.1"/><g transform="translate(-136 48)"><circle cx="248.5" cy="248.5" r="248.5" transform="translate(296 240)" fill="#1269d3" opacity="0.1"/><circle cx="176.5" cy="176.5" r="176.5" transform="translate(316 362)" fill="#1269d3" opacity="0.1"/></g><line x2="200" transform="translate(677 220)" fill="none" stroke="#aaa" stroke-width="2" stroke-dasharray="2"/><line x2="317" transform="translate(560 340)" fill="none" stroke="#aaa" stroke-width="2" stroke-dasharray="2"/><line x2="399" y2="3" transform="translate(478 460)" fill="none" stroke="#aaa" stroke-width="2" stroke-dasharray="2"/><g transform="translate(450 624)" fill="#ff9327" stroke="#ff9327" stroke-width="1" opacity="0.24"><circle cx="99" cy="99" r="99" stroke="none"/><circle cx="99" cy="99" r="98.5" fill="none"/></g><g transform="translate(354 682)" fill="#e668ff" stroke="#e668ff" stroke-width="1" opacity="0.24"><circle cx="83" cy="83" r="83" stroke="none"/><circle cx="83" cy="83" r="82.5" fill="none"/></g><g transform="translate(256 712)" fill="#5abe6f" stroke="#5abe6f" stroke-width="1" opacity="0.24"><circle cx="64" cy="64" r="64" stroke="none"/><circle cx="64" cy="64" r="63.5" fill="none"/></g><path d="M39.643,19.027H33.033L31.65,23H28.568L35.014,5.938h2.66L44.131,23H41.037Zm-5.777-2.391h4.945L36.338,9.559ZM48.6,11.7a4.457,4.457,0,0,1,3.527-1.617q4.055,0,4.113,4.629V23H53.389V14.82a2.5,2.5,0,0,0-.568-1.857,2.323,2.323,0,0,0-1.67-.545A2.743,2.743,0,0,0,48.6,13.941V23H45.748V5H48.6Zm17.156,1.219a7.047,7.047,0,0,0-1.16-.094,2.612,2.612,0,0,0-2.637,1.5V23H59.107V10.32h2.719l.07,1.418a3.208,3.208,0,0,1,2.859-1.652,2.666,2.666,0,0,1,1.008.164Zm7.16,10.313a5.891,5.891,0,0,1-4.389-1.705,6.185,6.185,0,0,1-1.682-4.541v-.352a7.608,7.608,0,0,1,.732-3.393,5.575,5.575,0,0,1,2.057-2.326,5.437,5.437,0,0,1,2.953-.832,4.977,4.977,0,0,1,4,1.652A6.987,6.987,0,0,1,78,16.414v1.148H69.713a3.808,3.808,0,0,0,1.049,2.484,3.149,3.149,0,0,0,2.314.914,3.856,3.856,0,0,0,3.188-1.582L77.8,20.844a5.127,5.127,0,0,1-2.033,1.764A6.365,6.365,0,0,1,72.912,23.234Zm-.34-10.863a2.4,2.4,0,0,0-1.893.82,4.252,4.252,0,0,0-.92,2.285h5.426v-.211a3.461,3.461,0,0,0-.762-2.162A2.38,2.38,0,0,0,72.572,12.371ZM81.209,23V12.43H79.275V10.32h1.934V9.16A4.355,4.355,0,0,1,82.381,5.9a4.489,4.489,0,0,1,3.281-1.148,6.582,6.582,0,0,1,1.594.211l-.07,2.227A5.609,5.609,0,0,0,86.1,7.1a1.829,1.829,0,0,0-2.039,2.1V10.32h2.578V12.43H84.057V23Zm14.613-3.445a1.291,1.291,0,0,0-.627-1.16,6.668,6.668,0,0,0-2.08-.7,10.693,10.693,0,0,1-2.426-.773,3.237,3.237,0,0,1-2.133-2.988,3.375,3.375,0,0,1,1.383-2.742,5.467,5.467,0,0,1,3.516-1.1,5.688,5.688,0,0,1,3.674,1.125,3.57,3.57,0,0,1,1.4,2.918H95.682a1.755,1.755,0,0,0-.609-1.365,2.335,2.335,0,0,0-1.617-.545,2.523,2.523,0,0,0-1.529.434,1.367,1.367,0,0,0-.592,1.16,1.154,1.154,0,0,0,.551,1.02,7.574,7.574,0,0,0,2.227.732,10.54,10.54,0,0,1,2.631.879,3.725,3.725,0,0,1,1.418,1.225,3.123,3.123,0,0,1,.463,1.734,3.3,3.3,0,0,1-1.418,2.771,6.046,6.046,0,0,1-3.715,1.061,6.556,6.556,0,0,1-2.777-.562,4.571,4.571,0,0,1-1.9-1.547A3.662,3.662,0,0,1,88.135,19H90.9a2.007,2.007,0,0,0,.762,1.553,2.96,2.96,0,0,0,1.863.545,2.88,2.88,0,0,0,1.711-.428A1.324,1.324,0,0,0,95.822,19.555Z" transform="translate(256 762)" fill="#005311"/><path d="M45.787,18.605A2.06,2.06,0,0,0,45,16.871a9.517,9.517,0,0,0-2.854-1.23,13.779,13.779,0,0,1-3.281-1.383,4.379,4.379,0,0,1-2.332-3.82,4.158,4.158,0,0,1,1.682-3.4A6.806,6.806,0,0,1,42.576,5.7a7.373,7.373,0,0,1,3.176.656,5.213,5.213,0,0,1,2.191,1.869,4.794,4.794,0,0,1,.8,2.689H45.787a2.674,2.674,0,0,0-.838-2.092,3.458,3.458,0,0,0-2.4-.756,3.612,3.612,0,0,0-2.256.621,2.068,2.068,0,0,0-.8,1.734,1.871,1.871,0,0,0,.867,1.564,9.99,9.99,0,0,0,2.859,1.219,13.153,13.153,0,0,1,3.2,1.348,5.089,5.089,0,0,1,1.77,1.734,4.517,4.517,0,0,1,.563,2.291,4.061,4.061,0,0,1-1.635,3.393,7.091,7.091,0,0,1-4.436,1.26,8.335,8.335,0,0,1-3.4-.686,5.719,5.719,0,0,1-2.414-1.893A4.716,4.716,0,0,1,36,17.844h2.965a2.76,2.76,0,0,0,.961,2.25,4.208,4.208,0,0,0,2.754.8,3.656,3.656,0,0,0,2.326-.627A2.023,2.023,0,0,0,45.787,18.605Zm10.875,4.629a5.891,5.891,0,0,1-4.389-1.705,6.185,6.185,0,0,1-1.682-4.541v-.352a7.608,7.608,0,0,1,.732-3.393,5.575,5.575,0,0,1,2.057-2.326,5.437,5.437,0,0,1,2.953-.832,4.977,4.977,0,0,1,4,1.652,6.987,6.987,0,0,1,1.412,4.676v1.148H53.463a3.808,3.808,0,0,0,1.049,2.484,3.149,3.149,0,0,0,2.314.914,3.856,3.856,0,0,0,3.188-1.582l1.535,1.465a5.127,5.127,0,0,1-2.033,1.764A6.365,6.365,0,0,1,56.662,23.234Zm-.34-10.863a2.4,2.4,0,0,0-1.893.82,4.252,4.252,0,0,0-.92,2.285h5.426v-.211a3.461,3.461,0,0,0-.762-2.162A2.38,2.38,0,0,0,56.322,12.371ZM66.635,10.32l.082,1.324a4.563,4.563,0,0,1,3.656-1.559,3.505,3.505,0,0,1,3.48,1.945,4.5,4.5,0,0,1,3.891-1.945,3.953,3.953,0,0,1,3.123,1.16,5.108,5.108,0,0,1,1.049,3.422V23H79.068V14.75a2.522,2.522,0,0,0-.527-1.77,2.308,2.308,0,0,0-1.746-.562,2.371,2.371,0,0,0-1.588.521,2.75,2.75,0,0,0-.861,1.365l.012,8.7H71.51V14.656a2.031,2.031,0,0,0-2.285-2.238A2.507,2.507,0,0,0,66.8,13.813V23H63.951V10.32Zm24.844,2.6a7.047,7.047,0,0,0-1.16-.094,2.612,2.612,0,0,0-2.637,1.5V23H84.834V10.32h2.719l.07,1.418a3.208,3.208,0,0,1,2.859-1.652,2.666,2.666,0,0,1,1.008.164Zm9.48,8.836A4.416,4.416,0,0,1,97.4,23.234a3.936,3.936,0,0,1-3.123-1.207,5.135,5.135,0,0,1-1.061-3.492V10.32h2.848V18.5q0,2.414,2,2.414a2.814,2.814,0,0,0,2.8-1.488V10.32h2.848V23h-2.684Zm12.762-2.2a1.291,1.291,0,0,0-.627-1.16,6.668,6.668,0,0,0-2.08-.7,10.693,10.693,0,0,1-2.426-.773,3.237,3.237,0,0,1-2.133-2.988,3.375,3.375,0,0,1,1.383-2.742,5.467,5.467,0,0,1,3.516-1.1,5.688,5.688,0,0,1,3.674,1.125,3.57,3.57,0,0,1,1.4,2.918H113.58a1.755,1.755,0,0,0-.609-1.365,2.335,2.335,0,0,0-1.617-.545,2.523,2.523,0,0,0-1.529.434,1.367,1.367,0,0,0-.592,1.16,1.154,1.154,0,0,0,.551,1.02,7.574,7.574,0,0,0,2.227.732,10.54,10.54,0,0,1,2.631.879,3.725,3.725,0,0,1,1.418,1.225,3.123,3.123,0,0,1,.463,1.734,3.3,3.3,0,0,1-1.418,2.771,6.046,6.046,0,0,1-3.715,1.061,6.556,6.556,0,0,1-2.777-.562,4.571,4.571,0,0,1-1.9-1.547,3.662,3.662,0,0,1-.68-2.121H108.8a2.007,2.007,0,0,0,.762,1.553,2.96,2.96,0,0,0,1.863.545,2.88,2.88,0,0,0,1.711-.428A1.324,1.324,0,0,0,113.721,19.555Zm8.086-7.852a4.457,4.457,0,0,1,3.527-1.617q4.055,0,4.113,4.629V23H126.6V14.82a2.5,2.5,0,0,0-.568-1.857,2.323,2.323,0,0,0-1.67-.545,2.743,2.743,0,0,0-2.555,1.523V23h-2.848V5h2.848Z" transform="translate(354 748)" fill="#5e0071"/><path d="M81.3,5.938l4.922,13.078,4.91-13.078h3.832V23H92.01V17.375L92.3,9.852,87.264,23H85.143L80.115,9.863l.293,7.512V23H77.455V5.938ZM97.658,16.543a7.477,7.477,0,0,1,.738-3.357,5.392,5.392,0,0,1,2.074-2.3,5.844,5.844,0,0,1,3.07-.8,5.539,5.539,0,0,1,4.166,1.652,6.5,6.5,0,0,1,1.729,4.383l.012.668a7.543,7.543,0,0,1-.721,3.352,5.327,5.327,0,0,1-2.062,2.285,5.887,5.887,0,0,1-3.1.809,5.5,5.5,0,0,1-4.295-1.787,6.845,6.845,0,0,1-1.611-4.764Zm2.848.246a5.109,5.109,0,0,0,.809,3.064,2.629,2.629,0,0,0,2.25,1.107,2.6,2.6,0,0,0,2.244-1.125,5.643,5.643,0,0,0,.8-3.293,5.043,5.043,0,0,0-.826-3.047,2.785,2.785,0,0,0-4.459-.018A5.537,5.537,0,0,0,100.506,16.789Zm14.2,3.938h6.75V23H111.17V21.137l6.434-8.52h-6.316v-2.3h9.926v1.8Z" transform="translate(450 709)" fill="#9b4e00"/><path d="M17.008,24.389a6.064,6.064,0,0,1-2.823,2.167,11.4,11.4,0,0,1-4.218.718,8.18,8.18,0,0,1-4.32-1.142,7.606,7.606,0,0,1-2.919-3.247A11.215,11.215,0,0,1,1.668,18V16.268q0-4.5,2.1-6.973a7.313,7.313,0,0,1,5.9-2.475,7.553,7.553,0,0,1,5.018,1.593,6.939,6.939,0,0,1,2.324,4.519H14.383a4.34,4.34,0,0,0-4.7-3.965,4.647,4.647,0,0,0-4,1.854,9.053,9.053,0,0,0-1.374,5.371V17.82a8.484,8.484,0,0,0,1.531,5.33A4.963,4.963,0,0,0,9.98,25.127a9.15,9.15,0,0,0,2.584-.327,4,4,0,0,0,1.832-1.1v-4.46H9.789V17.088h7.219Zm10.117,2.885A6.463,6.463,0,0,1,22.23,25.3a7.332,7.332,0,0,1-1.887-5.284v-.465a8.877,8.877,0,0,1,.841-3.931,6.559,6.559,0,0,1,2.352-2.707,5.912,5.912,0,0,1,3.274-.978,5.54,5.54,0,0,1,4.484,1.9,8.228,8.228,0,0,1,1.6,5.441v1.053H22.873a5.258,5.258,0,0,0,1.278,3.534,4.018,4.018,0,0,0,3.11,1.347,4.405,4.405,0,0,0,2.27-.547,5.7,5.7,0,0,0,1.627-1.449l1.545,1.2A6.212,6.212,0,0,1,27.125,27.273Zm-.314-13.262a3.374,3.374,0,0,0-2.57,1.114,5.416,5.416,0,0,0-1.285,3.124h7.41v-.191a4.817,4.817,0,0,0-1.039-2.987A3.176,3.176,0,0,0,26.811,14.012Zm17.623,9.064a1.862,1.862,0,0,0-.772-1.593,7.435,7.435,0,0,0-2.693-.978,12.734,12.734,0,0,1-3.049-.984,4.337,4.337,0,0,1-1.668-1.367,3.27,3.27,0,0,1-.54-1.887,3.837,3.837,0,0,1,1.538-3.076,6.007,6.007,0,0,1,3.931-1.258,6.181,6.181,0,0,1,4.081,1.3,4.125,4.125,0,0,1,1.565,3.322H44.283a2.283,2.283,0,0,0-.882-1.791,3.3,3.3,0,0,0-2.222-.752,3.458,3.458,0,0,0-2.16.6,1.894,1.894,0,0,0-.779,1.572,1.534,1.534,0,0,0,.725,1.381,8.915,8.915,0,0,0,2.618.889,13.642,13.642,0,0,1,3.069,1.012A4.477,4.477,0,0,1,46.4,20.882a3.479,3.479,0,0,1,.567,2.017,3.786,3.786,0,0,1-1.586,3.179,6.652,6.652,0,0,1-4.115,1.2,7.449,7.449,0,0,1-3.145-.629,5.114,5.114,0,0,1-2.14-1.757,4.234,4.234,0,0,1-.772-2.44h2.529a2.619,2.619,0,0,0,1.019,2.017,3.951,3.951,0,0,0,2.509.745,4.079,4.079,0,0,0,2.3-.581A1.785,1.785,0,0,0,44.434,23.076ZM59.391,27a5.313,5.313,0,0,1-.355-1.559,5.643,5.643,0,0,1-4.211,1.832,5.222,5.222,0,0,1-3.589-1.237,4,4,0,0,1-1.4-3.138,4.182,4.182,0,0,1,1.757-3.589,8.283,8.283,0,0,1,4.942-1.278h2.461V16.869a2.841,2.841,0,0,0-.793-2.112,3.187,3.187,0,0,0-2.338-.786,3.688,3.688,0,0,0-2.27.684,2.014,2.014,0,0,0-.916,1.654H50.135a3.491,3.491,0,0,1,.786-2.14,5.365,5.365,0,0,1,2.133-1.634,7.175,7.175,0,0,1,2.96-.6,5.848,5.848,0,0,1,4.006,1.278,4.611,4.611,0,0,1,1.5,3.521v6.809a8.324,8.324,0,0,0,.52,3.24V27Zm-4.2-1.928a4.445,4.445,0,0,0,2.256-.615,3.721,3.721,0,0,0,1.545-1.6V19.822H57.012q-4.648,0-4.648,2.721a2.3,2.3,0,0,0,.793,1.859A3.048,3.048,0,0,0,55.193,25.072ZM67.867,12.207l.068,1.641a5.463,5.463,0,0,1,4.389-1.914,4.229,4.229,0,0,1,4.225,2.379A5.6,5.6,0,0,1,78.47,12.59a5.673,5.673,0,0,1,2.8-.656q4.867,0,4.949,5.154V27H83.686V17.238a3.4,3.4,0,0,0-.725-2.372,3.191,3.191,0,0,0-2.434-.786,3.354,3.354,0,0,0-2.338.841,3.411,3.411,0,0,0-1.08,2.263V27H74.566V17.307q0-3.227-3.158-3.227A3.384,3.384,0,0,0,68,16.2V27H65.475V12.207ZM93.461,8.625v3.582h2.762v1.955H93.461v9.185a2.053,2.053,0,0,0,.369,1.335,1.554,1.554,0,0,0,1.258.445,6.124,6.124,0,0,0,1.2-.164V27a7.376,7.376,0,0,1-1.941.272,3.15,3.15,0,0,1-2.557-1.025,4.405,4.405,0,0,1-.861-2.912V14.162H88.238V12.207h2.693V8.625Zm11.854,18.648A6.463,6.463,0,0,1,100.42,25.3a7.332,7.332,0,0,1-1.887-5.284v-.465a8.877,8.877,0,0,1,.841-3.931,6.559,6.559,0,0,1,2.352-2.707A5.912,5.912,0,0,1,105,11.934a5.54,5.54,0,0,1,4.484,1.9,8.228,8.228,0,0,1,1.6,5.441v1.053H101.063a5.258,5.258,0,0,0,1.278,3.534,4.018,4.018,0,0,0,3.11,1.347,4.405,4.405,0,0,0,2.27-.547,5.7,5.7,0,0,0,1.627-1.449l1.545,1.2A6.212,6.212,0,0,1,105.314,27.273ZM105,14.012a3.374,3.374,0,0,0-2.57,1.114,5.416,5.416,0,0,0-1.285,3.124h7.41v-.191a4.817,4.817,0,0,0-1.039-2.987A3.176,3.176,0,0,0,105,14.012Zm17.623,9.064a1.862,1.862,0,0,0-.772-1.593,7.435,7.435,0,0,0-2.693-.978,12.734,12.734,0,0,1-3.049-.984,4.337,4.337,0,0,1-1.668-1.367,3.27,3.27,0,0,1-.54-1.887,3.837,3.837,0,0,1,1.538-3.076,6.007,6.007,0,0,1,3.931-1.258,6.181,6.181,0,0,1,4.081,1.3,4.125,4.125,0,0,1,1.565,3.322h-2.543a2.283,2.283,0,0,0-.882-1.791,3.3,3.3,0,0,0-2.222-.752,3.458,3.458,0,0,0-2.16.6,1.894,1.894,0,0,0-.779,1.572,1.534,1.534,0,0,0,.725,1.381,8.915,8.915,0,0,0,2.618.889,13.642,13.642,0,0,1,3.069,1.012,4.477,4.477,0,0,1,1.743,1.415,3.479,3.479,0,0,1,.567,2.017,3.786,3.786,0,0,1-1.586,3.179,6.652,6.652,0,0,1-4.115,1.2,7.449,7.449,0,0,1-3.145-.629,5.114,5.114,0,0,1-2.14-1.757,4.234,4.234,0,0,1-.772-2.44h2.529a2.619,2.619,0,0,0,1.019,2.017,3.951,3.951,0,0,0,2.509.745,4.079,4.079,0,0,0,2.3-.581A1.785,1.785,0,0,0,122.623,23.076ZM138.592,27h-2.625V7.094h2.625Zm6.795-14.793.082,1.859a5.391,5.391,0,0,1,4.43-2.133q4.689,0,4.73,5.291V27H152.1V17.211a3.405,3.405,0,0,0-.731-2.365,2.931,2.931,0,0,0-2.235-.766,3.65,3.65,0,0,0-2.16.656,4.456,4.456,0,0,0-1.449,1.723V27h-2.529V12.207Zm16.488-3.582v3.582h2.762v1.955h-2.762v9.185a2.053,2.053,0,0,0,.369,1.335,1.554,1.554,0,0,0,1.258.445,6.124,6.124,0,0,0,1.2-.164V27a7.376,7.376,0,0,1-1.941.272,3.15,3.15,0,0,1-2.557-1.025,4.405,4.405,0,0,1-.861-2.912V14.162h-2.693V12.207h2.693V8.625Zm11.854,18.648a6.463,6.463,0,0,1-4.895-1.976,7.332,7.332,0,0,1-1.887-5.284v-.465a8.877,8.877,0,0,1,.841-3.931,6.559,6.559,0,0,1,2.352-2.707,5.912,5.912,0,0,1,3.274-.978,5.54,5.54,0,0,1,4.484,1.9,8.228,8.228,0,0,1,1.6,5.441v1.053H169.477a5.258,5.258,0,0,0,1.278,3.534,4.018,4.018,0,0,0,3.11,1.347,4.405,4.405,0,0,0,2.27-.547,5.7,5.7,0,0,0,1.627-1.449l1.545,1.2A6.212,6.212,0,0,1,173.729,27.273Zm-.314-13.262a3.374,3.374,0,0,0-2.57,1.114,5.416,5.416,0,0,0-1.285,3.124h7.41v-.191a4.817,4.817,0,0,0-1.039-2.987A3.176,3.176,0,0,0,173.414,14.012Zm16.16.465a7.58,7.58,0,0,0-1.244-.1,3.333,3.333,0,0,0-3.377,2.119V27h-2.529V12.207h2.461l.041,1.709a3.938,3.938,0,0,1,3.527-1.982,2.584,2.584,0,0,1,1.121.191Zm4.717-2.27.082,1.859a5.391,5.391,0,0,1,4.43-2.133q4.689,0,4.73,5.291V27H201V17.211a3.405,3.405,0,0,0-.731-2.365,2.931,2.931,0,0,0-2.235-.766,3.65,3.65,0,0,0-2.16.656,4.456,4.456,0,0,0-1.449,1.723V27H191.9V12.207Zm19.2,15.066a6.463,6.463,0,0,1-4.895-1.976,7.332,7.332,0,0,1-1.887-5.284v-.465a8.877,8.877,0,0,1,.841-3.931,6.559,6.559,0,0,1,2.352-2.707,5.912,5.912,0,0,1,3.274-.978,5.54,5.54,0,0,1,4.484,1.9,8.228,8.228,0,0,1,1.6,5.441v1.053H209.234a5.258,5.258,0,0,0,1.278,3.534,4.018,4.018,0,0,0,3.11,1.347,4.405,4.405,0,0,0,2.27-.547,5.7,5.7,0,0,0,1.627-1.449l1.545,1.2A6.212,6.212,0,0,1,213.486,27.273Zm-.314-13.262a3.374,3.374,0,0,0-2.57,1.114,5.416,5.416,0,0,0-1.285,3.124h7.41v-.191a4.817,4.817,0,0,0-1.039-2.987A3.176,3.176,0,0,0,213.172,14.012Zm12.441-5.387v3.582h2.762v1.955h-2.762v9.185a2.053,2.053,0,0,0,.369,1.335,1.554,1.554,0,0,0,1.258.445,6.124,6.124,0,0,0,1.2-.164V27a7.376,7.376,0,0,1-1.941.272,3.15,3.15,0,0,1-2.557-1.025,4.405,4.405,0,0,1-.861-2.912V14.162h-2.693V12.207h2.693V8.625Z" transform="translate(896 202)" fill="#888"/><path d="M8.9,23.514l5.688-16.42h2.871L10.076,27H7.752L.383,7.094H3.24Zm9.529-4.047a8.738,8.738,0,0,1,.854-3.91,6.374,6.374,0,0,1,2.379-2.68,6.476,6.476,0,0,1,3.479-.943,6.238,6.238,0,0,1,4.888,2.092A8.048,8.048,0,0,1,31.9,19.59v.178a8.814,8.814,0,0,1-.827,3.876A6.281,6.281,0,0,1,28.7,26.316a6.55,6.55,0,0,1-3.534.957A6.223,6.223,0,0,1,20.3,25.182a8.007,8.007,0,0,1-1.866-5.537Zm2.543.3a6.329,6.329,0,0,0,1.142,3.951,3.869,3.869,0,0,0,6.118-.021,6.92,6.92,0,0,0,1.135-4.231,6.318,6.318,0,0,0-1.155-3.944,3.673,3.673,0,0,0-3.069-1.511,3.632,3.632,0,0,0-3.021,1.49A6.869,6.869,0,0,0,20.973,19.768Zm16.488-7.561.082,1.859a5.391,5.391,0,0,1,4.43-2.133q4.689,0,4.73,5.291V27H44.174V17.211a3.405,3.405,0,0,0-.731-2.365,2.931,2.931,0,0,0-2.235-.766,3.65,3.65,0,0,0-2.16.656A4.456,4.456,0,0,0,37.6,16.459V27H35.068V12.207ZM72.543,24.389a6.064,6.064,0,0,1-2.823,2.167,11.4,11.4,0,0,1-4.218.718,8.18,8.18,0,0,1-4.32-1.142,7.606,7.606,0,0,1-2.919-3.247A11.215,11.215,0,0,1,57.2,18V16.268q0-4.5,2.1-6.973A7.313,7.313,0,0,1,65.2,6.82a7.553,7.553,0,0,1,5.018,1.593,6.939,6.939,0,0,1,2.324,4.519H69.918a4.34,4.34,0,0,0-4.7-3.965,4.647,4.647,0,0,0-4,1.854,9.053,9.053,0,0,0-1.374,5.371V17.82a8.484,8.484,0,0,0,1.531,5.33,4.963,4.963,0,0,0,4.143,1.977A9.15,9.15,0,0,0,68.1,24.8a4,4,0,0,0,1.832-1.1v-4.46H65.324V17.088h7.219Zm3.309-4.922a8.737,8.737,0,0,1,.854-3.91,6.374,6.374,0,0,1,2.379-2.68,6.476,6.476,0,0,1,3.479-.943,6.238,6.238,0,0,1,4.888,2.092,8.048,8.048,0,0,1,1.866,5.564v.178a8.814,8.814,0,0,1-.827,3.876,6.281,6.281,0,0,1-2.365,2.673,6.55,6.55,0,0,1-3.534.957,6.223,6.223,0,0,1-4.874-2.092,8.007,8.007,0,0,1-1.866-5.537Zm2.543.3a6.329,6.329,0,0,0,1.142,3.951,3.869,3.869,0,0,0,6.118-.021,6.92,6.92,0,0,0,1.135-4.231,6.318,6.318,0,0,0-1.155-3.944,3.673,3.673,0,0,0-3.069-1.511,3.632,3.632,0,0,0-3.021,1.49A6.869,6.869,0,0,0,78.395,19.768Zm13.426-.3a8.737,8.737,0,0,1,.854-3.91,6.374,6.374,0,0,1,2.379-2.68,6.476,6.476,0,0,1,3.479-.943,6.238,6.238,0,0,1,4.888,2.092,8.048,8.048,0,0,1,1.866,5.564v.178a8.814,8.814,0,0,1-.827,3.876,6.281,6.281,0,0,1-2.365,2.673,6.55,6.55,0,0,1-3.534.957,6.223,6.223,0,0,1-4.874-2.092,8.007,8.007,0,0,1-1.866-5.537Zm2.543.3A6.329,6.329,0,0,0,95.5,23.719a3.869,3.869,0,0,0,6.118-.021,6.92,6.92,0,0,0,1.135-4.231,6.318,6.318,0,0,0-1.155-3.944,3.673,3.673,0,0,0-3.069-1.511,3.632,3.632,0,0,0-3.021,1.49A6.869,6.869,0,0,0,94.363,19.768Zm13.494-.287a8.694,8.694,0,0,1,1.6-5.5,5.515,5.515,0,0,1,8.463-.13l.123-1.641h2.311V26.645a6.018,6.018,0,0,1-1.7,4.525,6.281,6.281,0,0,1-4.573,1.654,7.608,7.608,0,0,1-3.131-.684,5.389,5.389,0,0,1-2.338-1.873l1.313-1.518a4.946,4.946,0,0,0,3.979,2.01,3.875,3.875,0,0,0,2.878-1.039,3.971,3.971,0,0,0,1.032-2.926V25.523a5.2,5.2,0,0,1-4.143,1.75,5.053,5.053,0,0,1-4.2-2.092A9.141,9.141,0,0,1,107.857,19.48Zm2.543.287a6.633,6.633,0,0,0,1.025,3.931,3.332,3.332,0,0,0,2.871,1.429,3.7,3.7,0,0,0,3.514-2.174V16.2a3.748,3.748,0,0,0-3.486-2.119,3.362,3.362,0,0,0-2.885,1.436A7.224,7.224,0,0,0,110.4,19.768ZM126.916,27h-2.529V6h2.529Zm10.186.273a6.463,6.463,0,0,1-4.895-1.976,7.332,7.332,0,0,1-1.887-5.284v-.465a8.877,8.877,0,0,1,.841-3.931,6.559,6.559,0,0,1,2.352-2.707,5.912,5.912,0,0,1,3.274-.978,5.54,5.54,0,0,1,4.484,1.9,8.228,8.228,0,0,1,1.6,5.441v1.053H132.85a5.258,5.258,0,0,0,1.278,3.534,4.018,4.018,0,0,0,3.11,1.347,4.405,4.405,0,0,0,2.27-.547,5.7,5.7,0,0,0,1.627-1.449l1.545,1.2A6.212,6.212,0,0,1,137.1,27.273Zm-.314-13.262a3.374,3.374,0,0,0-2.57,1.114,5.416,5.416,0,0,0-1.285,3.124h7.41v-.191a4.817,4.817,0,0,0-1.039-2.987A3.176,3.176,0,0,0,136.787,14.012Zm15.34,5.469a8.694,8.694,0,0,1,1.6-5.5,5.515,5.515,0,0,1,8.463-.13l.123-1.641h2.311V26.645a6.018,6.018,0,0,1-1.7,4.525,6.281,6.281,0,0,1-4.573,1.654,7.608,7.608,0,0,1-3.131-.684,5.389,5.389,0,0,1-2.338-1.873l1.313-1.518a4.946,4.946,0,0,0,3.979,2.01,3.875,3.875,0,0,0,2.878-1.039,3.971,3.971,0,0,0,1.032-2.926V25.523a5.2,5.2,0,0,1-4.143,1.75,5.053,5.053,0,0,1-4.2-2.092A9.141,9.141,0,0,1,152.127,19.48Zm2.543.287A6.633,6.633,0,0,0,155.7,23.7a3.332,3.332,0,0,0,2.871,1.429,3.7,3.7,0,0,0,3.514-2.174V16.2a3.748,3.748,0,0,0-3.486-2.119,3.362,3.362,0,0,0-2.885,1.436A7.224,7.224,0,0,0,154.67,19.768Zm19.906,7.506a6.463,6.463,0,0,1-4.895-1.976,7.332,7.332,0,0,1-1.887-5.284v-.465a8.877,8.877,0,0,1,.841-3.931,6.559,6.559,0,0,1,2.352-2.707,5.912,5.912,0,0,1,3.274-.978,5.54,5.54,0,0,1,4.484,1.9,8.228,8.228,0,0,1,1.6,5.441v1.053H170.324a5.258,5.258,0,0,0,1.278,3.534,4.018,4.018,0,0,0,3.11,1.347,4.405,4.405,0,0,0,2.27-.547,5.7,5.7,0,0,0,1.627-1.449l1.545,1.2A6.212,6.212,0,0,1,174.576,27.273Zm-.314-13.262a3.374,3.374,0,0,0-2.57,1.114,5.416,5.416,0,0,0-1.285,3.124h7.41v-.191a4.817,4.817,0,0,0-1.039-2.987A3.176,3.176,0,0,0,174.262,14.012Zm14.943,11.2a3.643,3.643,0,0,0,2.365-.82,2.886,2.886,0,0,0,1.121-2.051h2.393a4.587,4.587,0,0,1-.875,2.42,5.763,5.763,0,0,1-2.153,1.832,6.213,6.213,0,0,1-2.851.684,6.094,6.094,0,0,1-4.806-2.017,8.032,8.032,0,0,1-1.784-5.517v-.424a8.906,8.906,0,0,1,.793-3.842,6.04,6.04,0,0,1,2.276-2.611,6.466,6.466,0,0,1,3.507-.93,5.933,5.933,0,0,1,4.136,1.49,5.326,5.326,0,0,1,1.757,3.869h-2.393a3.486,3.486,0,0,0-1.087-2.358,3.381,3.381,0,0,0-2.413-.923A3.54,3.54,0,0,0,186.2,15.4a6.517,6.517,0,0,0-1.06,4.013v.479a6.387,6.387,0,0,0,1.053,3.938A3.557,3.557,0,0,0,189.205,25.209Zm15.873-10.732a7.58,7.58,0,0,0-1.244-.1,3.333,3.333,0,0,0-3.377,2.119V27h-2.529V12.207h2.461l.041,1.709a3.938,3.938,0,0,1,3.527-1.982,2.584,2.584,0,0,1,1.121.191ZM215.988,27a5.313,5.313,0,0,1-.355-1.559,5.643,5.643,0,0,1-4.211,1.832,5.222,5.222,0,0,1-3.589-1.237,4,4,0,0,1-1.4-3.138,4.182,4.182,0,0,1,1.757-3.589,8.283,8.283,0,0,1,4.942-1.278h2.461V16.869a2.841,2.841,0,0,0-.793-2.112,3.187,3.187,0,0,0-2.338-.786,3.688,3.688,0,0,0-2.27.684,2.014,2.014,0,0,0-.916,1.654h-2.543a3.491,3.491,0,0,1,.786-2.14,5.366,5.366,0,0,1,2.133-1.634,7.175,7.175,0,0,1,2.96-.6,5.848,5.848,0,0,1,4.006,1.278,4.611,4.611,0,0,1,1.5,3.521v6.809a8.324,8.324,0,0,0,.52,3.24V27Zm-4.2-1.928a4.445,4.445,0,0,0,2.256-.615,3.721,3.721,0,0,0,1.545-1.6V19.822h-1.982q-4.648,0-4.648,2.721a2.3,2.3,0,0,0,.793,1.859A3.048,3.048,0,0,0,211.791,25.072Zm23.393-1.559,2.844-11.307h2.529L236.25,27H234.2l-3.6-11.211L227.1,27h-2.051L220.76,12.207h2.516l2.912,11.074,3.445-11.074h2.037ZM245.875,27h-2.529V6h2.529Zm7.479-18.375v3.582h2.762v1.955h-2.762v9.185a2.053,2.053,0,0,0,.369,1.335,1.554,1.554,0,0,0,1.258.445,6.124,6.124,0,0,0,1.2-.164V27a7.376,7.376,0,0,1-1.941.272,3.15,3.15,0,0,1-2.557-1.025,4.405,4.405,0,0,1-.861-2.912V14.162h-2.693V12.207h2.693V8.625Z" transform="translate(896 322)" fill="#888"/><path d="M8.9,23.514l5.688-16.42h2.871L10.076,27H7.752L.383,7.094H3.24Zm9.529-4.047a8.738,8.738,0,0,1,.854-3.91,6.374,6.374,0,0,1,2.379-2.68,6.476,6.476,0,0,1,3.479-.943,6.238,6.238,0,0,1,4.888,2.092A8.048,8.048,0,0,1,31.9,19.59v.178a8.814,8.814,0,0,1-.827,3.876A6.281,6.281,0,0,1,28.7,26.316a6.55,6.55,0,0,1-3.534.957A6.223,6.223,0,0,1,20.3,25.182a8.007,8.007,0,0,1-1.866-5.537Zm2.543.3a6.329,6.329,0,0,0,1.142,3.951,3.869,3.869,0,0,0,6.118-.021,6.92,6.92,0,0,0,1.135-4.231,6.318,6.318,0,0,0-1.155-3.944,3.673,3.673,0,0,0-3.069-1.511,3.632,3.632,0,0,0-3.021,1.49A6.869,6.869,0,0,0,20.973,19.768Zm16.488-7.561.082,1.859a5.391,5.391,0,0,1,4.43-2.133q4.689,0,4.73,5.291V27H44.174V17.211a3.405,3.405,0,0,0-.731-2.365,2.931,2.931,0,0,0-2.235-.766,3.65,3.65,0,0,0-2.16.656A4.456,4.456,0,0,0,37.6,16.459V27H35.068V12.207ZM72.543,24.389a6.064,6.064,0,0,1-2.823,2.167,11.4,11.4,0,0,1-4.218.718,8.18,8.18,0,0,1-4.32-1.142,7.606,7.606,0,0,1-2.919-3.247A11.215,11.215,0,0,1,57.2,18V16.268q0-4.5,2.1-6.973A7.313,7.313,0,0,1,65.2,6.82a7.553,7.553,0,0,1,5.018,1.593,6.939,6.939,0,0,1,2.324,4.519H69.918a4.34,4.34,0,0,0-4.7-3.965,4.647,4.647,0,0,0-4,1.854,9.053,9.053,0,0,0-1.374,5.371V17.82a8.484,8.484,0,0,0,1.531,5.33,4.963,4.963,0,0,0,4.143,1.977A9.15,9.15,0,0,0,68.1,24.8a4,4,0,0,0,1.832-1.1v-4.46H65.324V17.088h7.219Zm3.309-4.922a8.737,8.737,0,0,1,.854-3.91,6.374,6.374,0,0,1,2.379-2.68,6.476,6.476,0,0,1,3.479-.943,6.238,6.238,0,0,1,4.888,2.092,8.048,8.048,0,0,1,1.866,5.564v.178a8.814,8.814,0,0,1-.827,3.876,6.281,6.281,0,0,1-2.365,2.673,6.55,6.55,0,0,1-3.534.957,6.223,6.223,0,0,1-4.874-2.092,8.007,8.007,0,0,1-1.866-5.537Zm2.543.3a6.329,6.329,0,0,0,1.142,3.951,3.869,3.869,0,0,0,6.118-.021,6.92,6.92,0,0,0,1.135-4.231,6.318,6.318,0,0,0-1.155-3.944,3.673,3.673,0,0,0-3.069-1.511,3.632,3.632,0,0,0-3.021,1.49A6.869,6.869,0,0,0,78.395,19.768Zm13.426-.3a8.737,8.737,0,0,1,.854-3.91,6.374,6.374,0,0,1,2.379-2.68,6.476,6.476,0,0,1,3.479-.943,6.238,6.238,0,0,1,4.888,2.092,8.048,8.048,0,0,1,1.866,5.564v.178a8.814,8.814,0,0,1-.827,3.876,6.281,6.281,0,0,1-2.365,2.673,6.55,6.55,0,0,1-3.534.957,6.223,6.223,0,0,1-4.874-2.092,8.007,8.007,0,0,1-1.866-5.537Zm2.543.3A6.329,6.329,0,0,0,95.5,23.719a3.869,3.869,0,0,0,6.118-.021,6.92,6.92,0,0,0,1.135-4.231,6.318,6.318,0,0,0-1.155-3.944,3.673,3.673,0,0,0-3.069-1.511,3.632,3.632,0,0,0-3.021,1.49A6.869,6.869,0,0,0,94.363,19.768Zm13.494-.287a8.694,8.694,0,0,1,1.6-5.5,5.515,5.515,0,0,1,8.463-.13l.123-1.641h2.311V26.645a6.018,6.018,0,0,1-1.7,4.525,6.281,6.281,0,0,1-4.573,1.654,7.608,7.608,0,0,1-3.131-.684,5.389,5.389,0,0,1-2.338-1.873l1.313-1.518a4.946,4.946,0,0,0,3.979,2.01,3.875,3.875,0,0,0,2.878-1.039,3.971,3.971,0,0,0,1.032-2.926V25.523a5.2,5.2,0,0,1-4.143,1.75,5.053,5.053,0,0,1-4.2-2.092A9.141,9.141,0,0,1,107.857,19.48Zm2.543.287a6.633,6.633,0,0,0,1.025,3.931,3.332,3.332,0,0,0,2.871,1.429,3.7,3.7,0,0,0,3.514-2.174V16.2a3.748,3.748,0,0,0-3.486-2.119,3.362,3.362,0,0,0-2.885,1.436A7.224,7.224,0,0,0,110.4,19.768ZM126.916,27h-2.529V6h2.529Zm10.186.273a6.463,6.463,0,0,1-4.895-1.976,7.332,7.332,0,0,1-1.887-5.284v-.465a8.877,8.877,0,0,1,.841-3.931,6.559,6.559,0,0,1,2.352-2.707,5.912,5.912,0,0,1,3.274-.978,5.54,5.54,0,0,1,4.484,1.9,8.228,8.228,0,0,1,1.6,5.441v1.053H132.85a5.258,5.258,0,0,0,1.278,3.534,4.018,4.018,0,0,0,3.11,1.347,4.405,4.405,0,0,0,2.27-.547,5.7,5.7,0,0,0,1.627-1.449l1.545,1.2A6.212,6.212,0,0,1,137.1,27.273Zm-.314-13.262a3.374,3.374,0,0,0-2.57,1.114,5.416,5.416,0,0,0-1.285,3.124h7.41v-.191a4.817,4.817,0,0,0-1.039-2.987A3.176,3.176,0,0,0,136.787,14.012ZM153.973,27V14.162h-2.338V12.207h2.338V10.689a5.037,5.037,0,0,1,1.271-3.678,4.8,4.8,0,0,1,3.6-1.3,6.678,6.678,0,0,1,1.736.231l-.137,2.039a7.264,7.264,0,0,0-1.367-.123,2.468,2.468,0,0,0-1.9.72,2.92,2.92,0,0,0-.67,2.064v1.564h3.158v1.955H156.5V27Zm17.609-1.463a5.372,5.372,0,0,1-4.334,1.736,4.6,4.6,0,0,1-3.6-1.374,5.947,5.947,0,0,1-1.251-4.067V12.207h2.529v9.557q0,3.363,2.734,3.363,2.9,0,3.855-2.16V12.207h2.529V27h-2.406Zm-7.7-17.288a1.5,1.5,0,0,1,.376-1.037,1.42,1.42,0,0,1,1.114-.419,1.442,1.442,0,0,1,1.121.419,1.48,1.48,0,0,1,.383,1.037,1.371,1.371,0,0,1-1.5,1.442,1.433,1.433,0,0,1-1.114-.412A1.471,1.471,0,0,1,163.885,8.249Zm5.879.027a1.521,1.521,0,0,1,.376-1.044,1.408,1.408,0,0,1,1.114-.426,1.43,1.43,0,0,1,1.121.426,1.505,1.505,0,0,1,.383,1.044,1.371,1.371,0,0,1-1.5,1.442,1.433,1.433,0,0,1-1.114-.412A1.471,1.471,0,0,1,169.764,8.276Zm15.271,6.2a7.58,7.58,0,0,0-1.244-.1,3.333,3.333,0,0,0-3.377,2.119V27h-2.529V12.207h2.461l.041,1.709a3.938,3.938,0,0,1,3.527-1.982,2.584,2.584,0,0,1,1.121.191ZM9.611,58.947H4.936V67H2.3V47.094h6.59a7.8,7.8,0,0,1,5.175,1.531,5.509,5.509,0,0,1,1.812,4.457,5.359,5.359,0,0,1-1,3.24,6,6,0,0,1-2.8,2.064l4.676,8.449V67H13.932ZM4.936,56.8H8.969a4.549,4.549,0,0,0,3.11-1.014,3.427,3.427,0,0,0,1.155-2.712,3.609,3.609,0,0,0-1.1-2.835,4.66,4.66,0,0,0-3.179-1H4.936ZM28.287,67a5.313,5.313,0,0,1-.355-1.559,5.643,5.643,0,0,1-4.211,1.832,5.222,5.222,0,0,1-3.589-1.237,4,4,0,0,1-1.4-3.138,4.182,4.182,0,0,1,1.757-3.589,8.283,8.283,0,0,1,4.942-1.278h2.461V56.869a2.841,2.841,0,0,0-.793-2.112,3.187,3.187,0,0,0-2.338-.786,3.688,3.688,0,0,0-2.27.684,2.014,2.014,0,0,0-.916,1.654H19.031a3.491,3.491,0,0,1,.786-2.14,5.365,5.365,0,0,1,2.133-1.634,7.175,7.175,0,0,1,2.96-.6,5.848,5.848,0,0,1,4.006,1.278,4.611,4.611,0,0,1,1.5,3.521v6.809a8.324,8.324,0,0,0,.52,3.24V67Zm-4.2-1.928a4.445,4.445,0,0,0,2.256-.615,3.721,3.721,0,0,0,1.545-1.6V59.822H25.908q-4.648,0-4.648,2.721a2.3,2.3,0,0,0,.793,1.859A3.048,3.048,0,0,0,24.09,65.072ZM36.777,52.207l.082,1.859a5.391,5.391,0,0,1,4.43-2.133q4.689,0,4.73,5.291V67H43.49V57.211a3.405,3.405,0,0,0-.731-2.365,2.931,2.931,0,0,0-2.235-.766,3.65,3.65,0,0,0-2.16.656,4.456,4.456,0,0,0-1.449,1.723V67H34.385V52.207ZM53.963,60.15,52.377,61.8V67H49.848V46h2.529V58.7l1.354-1.627,4.607-4.867h3.076l-5.756,6.18L62.084,67H59.117ZM66.773,67H64.244V52.207h2.529ZM64.039,48.283a1.51,1.51,0,0,1,.376-1.039,1.412,1.412,0,0,1,1.114-.424,1.434,1.434,0,0,1,1.121.424,1.494,1.494,0,0,1,.383,1.039,1.445,1.445,0,0,1-.383,1.025,1.46,1.46,0,0,1-1.121.41,1.437,1.437,0,0,1-1.114-.41A1.46,1.46,0,0,1,64.039,48.283Zm9.174,3.924.082,1.859a5.391,5.391,0,0,1,4.43-2.133q4.689,0,4.73,5.291V67H79.926V57.211a3.405,3.405,0,0,0-.731-2.365,2.931,2.931,0,0,0-2.235-.766,3.65,3.65,0,0,0-2.16.656,4.456,4.456,0,0,0-1.449,1.723V67H70.82V52.207ZM85.668,59.48a8.694,8.694,0,0,1,1.6-5.5,5.515,5.515,0,0,1,8.463-.13l.123-1.641h2.311V66.645a6.018,6.018,0,0,1-1.7,4.525,6.281,6.281,0,0,1-4.573,1.654,7.608,7.608,0,0,1-3.131-.684,5.389,5.389,0,0,1-2.338-1.873l1.313-1.518a4.946,4.946,0,0,0,3.979,2.01,3.875,3.875,0,0,0,2.878-1.039,3.971,3.971,0,0,0,1.032-2.926V65.523a5.2,5.2,0,0,1-4.143,1.75,5.053,5.053,0,0,1-4.2-2.092A9.141,9.141,0,0,1,85.668,59.48Zm2.543.287A6.633,6.633,0,0,0,89.236,63.7a3.332,3.332,0,0,0,2.871,1.429,3.7,3.7,0,0,0,3.514-2.174V56.2a3.748,3.748,0,0,0-3.486-2.119,3.362,3.362,0,0,0-2.885,1.436A7.224,7.224,0,0,0,88.211,59.768Zm20.1-.287a8.694,8.694,0,0,1,1.6-5.5,5.515,5.515,0,0,1,8.463-.13l.123-1.641H120.8V66.645a6.018,6.018,0,0,1-1.7,4.525,6.281,6.281,0,0,1-4.573,1.654,7.608,7.608,0,0,1-3.131-.684,5.389,5.389,0,0,1-2.338-1.873l1.313-1.518a4.946,4.946,0,0,0,3.979,2.01,3.875,3.875,0,0,0,2.878-1.039,3.971,3.971,0,0,0,1.032-2.926V65.523a5.2,5.2,0,0,1-4.143,1.75,5.053,5.053,0,0,1-4.2-2.092A9.141,9.141,0,0,1,108.309,59.48Zm2.543.287a6.633,6.633,0,0,0,1.025,3.931,3.332,3.332,0,0,0,2.871,1.429,3.7,3.7,0,0,0,3.514-2.174V56.2a3.748,3.748,0,0,0-3.486-2.119,3.362,3.362,0,0,0-2.885,1.436A7.224,7.224,0,0,0,110.852,59.768Zm19.906,7.506a6.463,6.463,0,0,1-4.895-1.976,7.332,7.332,0,0,1-1.887-5.284v-.465a8.877,8.877,0,0,1,.841-3.931,6.559,6.559,0,0,1,2.352-2.707,5.912,5.912,0,0,1,3.274-.978,5.54,5.54,0,0,1,4.484,1.9,8.228,8.228,0,0,1,1.6,5.441v1.053H126.506a5.258,5.258,0,0,0,1.278,3.534,4.018,4.018,0,0,0,3.11,1.347,4.405,4.405,0,0,0,2.27-.547,5.7,5.7,0,0,0,1.627-1.449l1.545,1.2A6.212,6.212,0,0,1,130.758,67.273Zm-.314-13.262a3.374,3.374,0,0,0-2.57,1.114,5.416,5.416,0,0,0-1.285,3.124H134v-.191a4.817,4.817,0,0,0-1.039-2.987A3.176,3.176,0,0,0,130.443,54.012Zm11.4-1.8.082,1.859a5.391,5.391,0,0,1,4.43-2.133q4.689,0,4.73,5.291V67h-2.529V57.211a3.405,3.405,0,0,0-.731-2.365,2.931,2.931,0,0,0-2.235-.766,3.65,3.65,0,0,0-2.16.656,4.456,4.456,0,0,0-1.449,1.723V67h-2.529V52.207Zm22.189,13.33a5.372,5.372,0,0,1-4.334,1.736,4.6,4.6,0,0,1-3.6-1.374,5.947,5.947,0,0,1-1.251-4.067V52.207h2.529v9.557q0,3.363,2.734,3.363,2.9,0,3.855-2.16V52.207H166.5V67H164.09Zm9.734-16.912v3.582h2.762v1.955H173.77v9.185a2.053,2.053,0,0,0,.369,1.335,1.554,1.554,0,0,0,1.258.445,6.124,6.124,0,0,0,1.2-.164V67a7.376,7.376,0,0,1-1.941.272,3.15,3.15,0,0,1-2.557-1.025,4.405,4.405,0,0,1-.861-2.912V54.162h-2.693V52.207h2.693V48.625Zm8.094,16.311h8.654V67H178.773V65.141L186.936,54.3H178.9V52.207h11.211V54Zm14.93-16.311v3.582h2.762v1.955h-2.762v9.185a2.053,2.053,0,0,0,.369,1.335,1.554,1.554,0,0,0,1.258.445,6.124,6.124,0,0,0,1.2-.164V67a7.376,7.376,0,0,1-1.941.272,3.15,3.15,0,0,1-2.557-1.025,4.405,4.405,0,0,1-.861-2.912V54.162H191.57V52.207h2.693V48.625Z" transform="translate(896 446)" fill="#888"/></g></svg>